<svg xmlns="http://www.w3.org/2000/svg" viewBox="0 0 32 32" role="img" aria-label="Mouse">
  <path fill="#111" d="M6 2h8v2H8v2H6V2Zm-2 4h2v4H4V6Zm2 4h2v2h2v2H8v-2H6v-2Zm4 4h3v2h-3v-2Zm3 2h6v2h-6v-2Zm6 2h3v2h-3v-2Zm3 2h2v3h-2v-3Zm2 3h2v7h-2v-7Zm-3 7h3v2h-3v-2Z"/>
  <path fill="#9a9a9a" d="M9 10h3v2h-2v2h-2v-2h1v-2Zm3 2h3v2h-3v-2Zm3 0h5v2h-5v-2Zm5 2h2v2h-2v-2Zm-10 2h3v2h-3v-2Zm-2 2h2v3H8v-3Zm14-1h2v3h-2v-3Zm-15 4h2v4H7v-4Zm17 2h2v5h-2v-5Zm-15 2h2v3H9v-3Zm12 5h3v2h-3v-2Z"/>
  <path fill="#d9d9d9" d="M13 14h7v2h2v2h1v4h1v7h-3v2H11v-2H9v-4H8v-4h1v-3h2v-2h2v-2Z"/>
  <path fill="#f8f8f8" d="M12 16h3v5h-2v2h-2v-5h1v-2Zm4 0h4v2h2v4h1v7h-3v1h-7v-2h-2v-4h2v-1h2v-2h1v-5Z"/>
  <path fill="#ececec" d="M16 16h3v2h-3v-2Zm-4 8h3v2h-3v-2Zm3 2h4v2h-4v-2Zm4 2h2v2h-2v-2Z"/>
  <path fill="#c8c8c8" d="M20 18h2v4h1v5h-2v-4h-1v-5Zm-9 10h2v2h-2v-2Zm2 2h7v1h-7v-1Z"/>
  <path fill="#7f7f7f" d="M12 12h4v2h-4v-2Zm4 1h5v1h-5v-1Zm-6 4h2v2h-2v-2Zm-1 2h2v2H9v-2Z"/>
</svg>
